{"title":"Pyaar Tune Kya Kiya -  Indian Telefilm - HDTVRip 720p x264 AAC [","uid":15522063,"size":263391476,"categoryP":"video","categoryS":"tv_shows","magnet":"?xt=urn:btih:e94e2468f3d255f8857588bc07fcf28585f84423&amp;dn=Pyaar+Tune+Kya+Kiya+-++Indian+Telefilm+-+HDTVRip+720p+x264+AAC+%5B&amp;tr=udp%3A%2F%2Ftracker.leechers-paradise.org%3A6969&amp;tr=udp%3A%2F%2Fzer0day.ch%3A1337&amp;tr=udp%3A%2F%2Fopen.demonii.com%3A1337&amp;tr=udp%3A%2F%2Ftracker.coppersurfer.tk%3A6969&amp;tr=udp%3A%2F%2Fexodus.desync.com%3A6969","seeders":0,"leechers":1,"uploader":"MdTaRa","files":1,"time":1470759570,"description":"======================================================================\r\nGeneral\r\nPyaar Tune Kya Kiya -  Indian Telefilm - HDTVRip 720p x264 AAC [ TaRa ].mkv\r\nFormat                      : Matroska\r\nFormat version              : Version 4 / Version 2\r\nFile size                   : 251 MiB\r\nDuration                    : 44 min\r\nOverall bit rate mode       : Variable\r\nOverall bit rate            : 791 kb/s\r\n========================================================================\r\nVideo\r\nID                          : 1\r\nFormat                      : AVC\r\nFormat/Info                 : Advanced Video Codec\r\nFormat profile              :   \r\nFormat settings, CABAC      : Yes\r\nFormat settings, ReFrames   : 3 frames\r\nFrame mode                  : Frame doubling\r\nCodec ID                    : V_MPEG4/ISO/AVC\r\nDuration                    : 44 min\r\nBit rate mode               : Variable\r\nBit rate                    : 684 kb/s\r\nMaximum bit rate            : 14.0 Mb/s\r\nWidth                       : 1 280 pixels\r\nHeight                      : 720 pixels\r\nDisplay aspect ratio        : 16:9\r\nFrame rate mode             : Constant\r\nFrame rate                  : 25.000 FPS\r\nColor space                 : YUV\r\nChroma subsampling          : 4:2:0\r\nBit depth                   : 8 bits\r\nScan type                   : Progressive\r\nBits/(Pixel*Frame)          : 0.030\r\nStream size                 : 217 MiB (86%)\r\nTitle                       : .....::::: TaRa :::::.....\r\nLanguage                    : Hindi\r\nDefault                     : Yes\r\nForced                      : No\r\n======================================================================\r\nAudio\r\nID                          : 2\r\nFormat                      : AAC\r\nFormat/Info                 : Advanced Audio Codec\r\nFormat profile              : LC\r\nCodec ID                    : A_AAC\r\nDuration                    : 44 min\r\nBit rate                    : 105 kb/s\r\nChannel(s)                  : 2 channels\r\nChannel positions           : Front: L R\r\nSampling rate               : 48.0 kHz\r\nFrame rate                  : 46.875 FPS (1024 spf)\r\nCompression mode            : Lossy\r\nStream size                 : 33.3 MiB (13%)\r\nTitle                       : .....::::: TaRa :::::.....\r\nLanguage                    : Hindi\r\nDefault                     : Yes\r\nForced                      : No\r\n======================================================================= \nhttp://imgur.com/vUZ0b1B","torrent":{"xt":"urn:btih:e94e2468f3d255f8857588bc07fcf28585f84423","amp;dn":"Pyaar+Tune+Kya+Kiya+-++Indian+Telefilm+-+HDTVRip+720p+x264+AAC+%5B","amp;tr":["udp%3A%2F%2Ftracker.leechers-paradise.org%3A6969","udp%3A%2F%2Fzer0day.ch%3A1337","udp%3A%2F%2Fopen.demonii.com%3A1337","udp%3A%2F%2Ftracker.coppersurfer.tk%3A6969","udp%3A%2F%2Fexodus.desync.com%3A6969"],"infoHash":"e94e2468f3d255f8857588bc07fcf28585f84423","infoHashBuffer":{"type":"Buffer","data":[233,78,36,104,243,210,85,248,133,117,136,188,7,252,242,133,133,248,68,35]},"announce":[],"urlList":[]}}